<?xml version="1.0" standalone="no"?>
<!DOCTYPE svg PUBLIC "-//W3C//DTD SVG 20010904//EN"
 "http://www.w3.org/TR/2001/REC-SVG-20010904/DTD/svg10.dtd">
<svg version="1.0" xmlns="http://www.w3.org/2000/svg"
 width="328.000000pt" height="328.000000pt" viewBox="0 0 328.000000 328.000000"
 preserveAspectRatio="xMidYMid meet">

<g transform="translate(0.000000,328.000000) scale(0.100000,-0.100000)"
fill="#000000" stroke="none">
<path d="M2238 2471 c-67 -14 -94 -42 -123 -126 -4 -11 -8 -63 -10 -116 -1
-53 -6 -102 -10 -109 -4 -7 -9 -27 -11 -44 -5 -53 -50 -178 -89 -251 -175
-326 -456 -540 -790 -600 -56 -11 -61 -11 -333 -13 l-243 -2 5 -69 c3 -38 10
-87 16 -110 6 -22 10 -43 9 -48 -1 -4 0 -15 3 -23 3 -8 13 -42 23 -75 18 -63
83 -198 97 -203 4 -2 8 -8 8 -13 0 -25 208 -259 230 -259 4 0 13 -7 20 -15 7
-8 38 -32 69 -53 197 -133 463 -200 684 -173 252 31 456 125 631 292 174 164
276 357 321 605 13 77 15 178 13 749 l-3 660 -240 1 c-132 1 -256 -1 -277 -5z"/>
<path d="M2940 2315 l0 -95 93 46 c50 25 94 48 96 50 3 3 -174 94 -184 94 -3
0 -5 -43 -5 -95z"/>
</g>
</svg>
